<svg id="visual" viewBox="0 0 600 900" width="600" height="900" xmlns="http://www.w3.org/2000/svg" xmlns:xlink="http://www.w3.org/1999/xlink" version="1.1"><rect x="0" y="0" width="600" height="900" fill="#00121f"></rect><path d="M0 538L12.5 553.5C25 569 50 600 75 598.2C100 596.3 125 561.7 150 555.5C175 549.3 200 571.7 225 567.3C250 563 275 532 300 520.7C325 509.3 350 517.7 375 523.7C400 529.7 425 533.3 450 533.8C475 534.3 500 531.7 525 525.3C550 519 575 509 587.5 504L600 499L600 901L587.5 901C575 901 550 901 525 901C500 901 475 901 450 901C425 901 400 901 375 901C350 901 325 901 300 901C275 901 250 901 225 901C200 901 175 901 150 901C125 901 100 901 75 901C50 901 25 901 12.5 901L0 901Z" fill="#f7caca"></path><path d="M0 673L12.5 678.8C25 684.7 50 696.3 75 696.5C100 696.7 125 685.3 150 668.2C175 651 200 628 225 625C250 622 275 639 300 636.2C325 633.3 350 610.7 375 616.8C400 623 425 658 450 674.7C475 691.3 500 689.7 525 676C550 662.3 575 636.7 587.5 623.8L600 611L600 901L587.5 901C575 901 550 901 525 901C500 901 475 901 450 901C425 901 400 901 375 901C350 901 325 901 300 901C275 901 250 901 225 901C200 901 175 901 150 901C125 901 100 901 75 901C50 901 25 901 12.5 901L0 901Z" fill="#a58387"></path><path d="M0 678L12.5 693.8C25 709.7 50 741.3 75 756.3C100 771.3 125 769.7 150 752.3C175 735 200 702 225 693.2C250 684.3 275 699.7 300 709.7C325 719.7 350 724.3 375 720.5C400 716.7 425 704.3 450 703.3C475 702.3 500 712.7 525 715.5C550 718.3 575 713.7 587.5 711.3L600 709L600 901L587.5 901C575 901 550 901 525 901C500 901 475 901 450 901C425 901 400 901 375 901C350 901 325 901 300 901C275 901 250 901 225 901C200 901 175 901 150 901C125 901 100 901 75 901C50 901 25 901 12.5 901L0 901Z" fill="#5a4348"></path><path d="M0 758L12.5 771.2C25 784.3 50 810.7 75 810.7C100 810.7 125 784.3 150 774.8C175 765.3 200 772.7 225 782C250 791.3 275 802.7 300 812.8C325 823 350 832 375 827.7C400 823.3 425 805.7 450 808.3C475 811 500 834 525 835.8C550 837.7 575 818.3 587.5 808.7L600 799L600 901L587.5 901C575 901 550 901 525 901C500 901 475 901 450 901C425 901 400 901 375 901C350 901 325 901 300 901C275 901 250 901 225 901C200 901 175 901 150 901C125 901 100 901 75 901C50 901 25 901 12.5 901L0 901Z" fill="#1a0810"></path></svg>